<?xml version="1.0" encoding="UTF-8"?>
<svg id="Layer_2" data-name="Layer 2" xmlns="http://www.w3.org/2000/svg" viewBox="0 0 1192 575">
  <defs>
    <style>
      .cls-1 {
        fill: #fff;
      }

      .cls-2 {
        fill: #5f1646;
      }
    </style>
  </defs>
  <g id="Layer_1-2" data-name="Layer 1">
    <g>
      <rect class="cls-2" width="1192" height="575"/>
      <g>
        <g>
          <polygon class="cls-1" points="443.8 133.93 394.9 274.33 334.3 123.43 274.9 274.33 224.8 133.93 183.7 133.93 269.5 355.03 334.3 206.53 399.1 355.03 485.2 133.93 443.8 133.93"/>
          <path class="cls-1" d="m570.85,211.33c-10.3-5.6-22.75-8.4-37.35-8.4s-27.3,2.95-38.1,8.85c-10.8,5.9-19.15,14.25-25.05,25.05-5.9,10.8-8.85,23.5-8.85,38.1s2.9,27,8.7,37.8c5.8,10.8,14.05,19.2,24.75,25.2,10.7,6,23.05,9,37.05,9,16,0,29.7-3.15,41.1-9.45,11.4-6.3,20.8-15.65,28.2-28.05l-28.2-11.1c-4.2,7.4-9.6,12.9-16.2,16.5-6.6,3.6-14.4,5.4-23.4,5.4-8.4,0-15.5-1.8-21.3-5.4-5.8-3.6-10.25-8.9-13.35-15.9-2.14-4.83-3.47-10.34-4.04-16.5h107.39c0-.8.05-2.1.15-3.9.1-1.8.15-3.5.15-5.1,0-14.8-2.7-27.45-8.1-37.95s-13.25-18.55-23.55-24.15Zm-75.19,48.6c.77-4.2,1.94-8,3.49-11.4,3.1-6.8,7.5-12,13.2-15.6,5.7-3.6,12.65-5.4,20.85-5.4,6.8,0,12.75,1.5,17.85,4.5,5.1,3,9.1,7.2,12,12.6,2.37,4.42,3.76,9.53,4.19,15.3h-71.58Z"/>
          <rect class="cls-1" x="627.7" y="109.93" width="32.7" height="234"/>
          <rect class="cls-1" x="695.49" y="109.93" width="32.7" height="234"/>
          <polygon class="cls-1" points="807.31 149.53 888.9 149.53 891.6 133.93 810 133.93 802.2 133.93 793.2 133.93 757.8 343.93 773.7 343.93 792.06 237.76 870.9 238.03 873.6 222.43 794.71 222.43 807.31 149.53"/>
          <path class="cls-1" d="m923.1,132.43c-3,0-5.6,1.05-7.8,3.15-2.2,2.1-3.3,4.75-3.3,7.95,0,3,1.1,5.55,3.3,7.65,2.2,2.1,4.8,3.15,7.8,3.15s5.6-1.05,7.8-3.15c2.2-2.1,3.3-4.65,3.3-7.65,0-3.2-1.1-5.85-3.3-7.95-2.2-2.1-4.8-3.15-7.8-3.15Z"/>
          <polygon class="cls-1" points="881.4 343.93 896.7 343.93 920.4 205.93 904.5 205.93 881.4 343.93"/>
          <polygon class="cls-1" points="985.91 205.93 994.2 157.93 978.6 157.93 970.47 205.93 949.2 205.93 946.5 220.63 967.98 220.63 947.1 343.93 962.1 343.93 983.38 220.63 1005.6 220.63 1008.3 205.93 985.91 205.93"/>
        </g>
        <g>
          <path class="cls-1" d="m343.83,407.32h7.59l-15.78,40.54-11.88-27.23-11.88,27.23-15.73-40.54h7.54l9.18,25.74,10.89-27.67,11.11,27.67,8.96-25.74Z"/>
          <path class="cls-1" d="m364.21,444.72c-1.96-1.1-3.47-2.64-4.54-4.62-1.06-1.98-1.59-4.29-1.59-6.93s.54-5,1.62-6.98c1.08-1.98,2.61-3.51,4.59-4.59,1.98-1.08,4.31-1.62,6.98-1.62s4.96.51,6.85,1.54,3.33,2.5,4.32,4.43c.99,1.93,1.49,4.25,1.49,6.96,0,.29,0,.6-.03.93-.02.33-.03.57-.03.71h-22.22v-4.12h17.11l-1.82,2.53c.11-.22.23-.51.36-.88.13-.37.19-.68.19-.93,0-1.36-.27-2.53-.8-3.52-.53-.99-1.27-1.76-2.2-2.31-.93-.55-2.03-.83-3.27-.83-1.5,0-2.78.33-3.82.99-1.04.66-1.85,1.61-2.42,2.86-.57,1.25-.85,2.79-.85,4.62-.04,1.8.23,3.34.8,4.62.57,1.28,1.38,2.25,2.45,2.92,1.06.66,2.36.99,3.9.99,1.65,0,3.08-.33,4.29-.99s2.2-1.67,2.97-3.03l5.17,2.04c-1.36,2.27-3.08,3.99-5.17,5.14s-4.6,1.73-7.54,1.73c-2.57,0-4.83-.55-6.79-1.65Z"/>
          <path class="cls-1" d="m404.44,402.92v42.9h-5.99v-42.9h5.99Z"/>
          <path class="cls-1" d="m426.77,402.92v42.9h-6v-42.9h6Z"/>
          <path class="cls-1" d="m458.23,426.18c-.77-.95-1.94-1.43-3.52-1.43-1.14,0-2.13.23-2.97.69-.84.46-1.49,1.12-1.95,1.98-.46.86-.69,1.86-.69,3v15.4h-6v-25.3h6v3.91c.81-1.5,1.84-2.62,3.11-3.36,1.26-.73,2.76-1.1,4.48-1.1,2.86,0,5.04.87,6.54,2.61,1.5,1.74,2.25,4.12,2.25,7.12v16.12h-6.1v-15.4c0-1.87-.39-3.28-1.16-4.23Z"/>
          <path class="cls-1" d="m486.08,444.72c-1.96-1.1-3.47-2.64-4.54-4.62-1.06-1.98-1.6-4.29-1.6-6.93s.54-5,1.62-6.98c1.08-1.98,2.61-3.51,4.59-4.59,1.98-1.08,4.31-1.62,6.99-1.62s4.96.51,6.85,1.54c1.89,1.03,3.33,2.5,4.32,4.43.99,1.93,1.49,4.25,1.49,6.96,0,.29,0,.6-.03.93-.02.33-.03.57-.03.71h-22.22v-4.12h17.1l-1.81,2.53c.11-.22.23-.51.36-.88.13-.37.19-.68.19-.93,0-1.36-.27-2.53-.8-3.52s-1.26-1.76-2.2-2.31c-.94-.55-2.03-.83-3.27-.83-1.5,0-2.78.33-3.82.99-1.04.66-1.85,1.61-2.42,2.86-.57,1.25-.85,2.79-.85,4.62-.04,1.8.23,3.34.8,4.62.57,1.28,1.38,2.25,2.45,2.92s2.37.99,3.91.99c1.65,0,3.08-.33,4.29-.99s2.2-1.67,2.97-3.03l5.17,2.04c-1.36,2.27-3.08,3.99-5.17,5.14s-4.6,1.73-7.54,1.73c-2.57,0-4.83-.55-6.79-1.65Z"/>
          <path class="cls-1" d="m523.95,439.77c.81.62,1.63,1.1,2.48,1.43.84.33,1.69.5,2.53.5,1.06,0,1.9-.24,2.5-.71s.91-1.14.91-1.98c0-.73-.24-1.37-.71-1.9-.48-.53-1.14-.99-1.98-1.38-.84-.38-1.83-.78-2.97-1.18-1.14-.44-2.26-.96-3.38-1.57-1.12-.6-2.04-1.4-2.75-2.39-.71-.99-1.07-2.24-1.07-3.74s.39-2.82,1.18-3.85c.79-1.03,1.85-1.79,3.19-2.28,1.34-.5,2.78-.74,4.32-.74,1.39,0,2.7.2,3.93.6,1.23.4,2.34.94,3.33,1.59.99.66,1.83,1.41,2.53,2.26l-3.3,3.52c-.81-.99-1.8-1.8-2.97-2.42-1.17-.62-2.38-.94-3.63-.94-.88,0-1.59.18-2.15.55-.55.37-.82.9-.82,1.59,0,.59.25,1.11.74,1.57.5.46,1.16.87,1.98,1.24.82.37,1.75.75,2.78,1.16,1.43.55,2.73,1.16,3.9,1.82,1.17.66,2.11,1.47,2.81,2.42s1.04,2.2,1.04,3.74c0,2.38-.82,4.3-2.45,5.75-1.63,1.45-3.82,2.17-6.57,2.17-1.76,0-3.35-.27-4.79-.8-1.43-.53-2.69-1.23-3.79-2.09-1.1-.86-2.02-1.77-2.75-2.72l3.47-3.52c.84.92,1.67,1.69,2.47,2.31Z"/>
          <path class="cls-1" d="m556.07,439.77c.81.62,1.63,1.1,2.47,1.43s1.69.5,2.53.5c1.06,0,1.9-.24,2.5-.71s.91-1.14.91-1.98c0-.73-.24-1.37-.71-1.9-.48-.53-1.14-.99-1.98-1.38-.84-.38-1.83-.78-2.97-1.18-1.14-.44-2.26-.96-3.38-1.57-1.12-.6-2.04-1.4-2.75-2.39-.71-.99-1.07-2.24-1.07-3.74s.39-2.82,1.18-3.85c.79-1.03,1.85-1.79,3.19-2.28,1.34-.5,2.78-.74,4.32-.74,1.39,0,2.7.2,3.93.6,1.23.4,2.34.94,3.33,1.59.99.66,1.83,1.41,2.53,2.26l-3.3,3.52c-.81-.99-1.8-1.8-2.97-2.42-1.17-.62-2.38-.94-3.63-.94-.88,0-1.59.18-2.14.55-.55.37-.83.9-.83,1.59,0,.59.25,1.11.74,1.57.5.46,1.16.87,1.98,1.24.83.37,1.75.75,2.78,1.16,1.43.55,2.73,1.16,3.91,1.82,1.17.66,2.11,1.47,2.8,2.42.7.95,1.04,2.2,1.04,3.74,0,2.38-.82,4.3-2.45,5.75-1.63,1.45-3.82,2.17-6.57,2.17-1.76,0-3.36-.27-4.79-.8s-2.7-1.23-3.79-2.09c-1.1-.86-2.02-1.77-2.75-2.72l3.46-3.52c.84.92,1.67,1.69,2.47,2.31Z"/>
          <path class="cls-1" d="m615.97,422.36c-.88-.94-1.64-1.97-2.28-3.11-.64-1.14-.96-2.38-.96-3.74,0-1.69.43-3.21,1.29-4.57.86-1.36,2.07-2.43,3.63-3.22,1.56-.79,3.38-1.18,5.47-1.18s3.93.43,5.42,1.29c1.49.86,2.61,1.96,3.38,3.3.77,1.34,1.16,2.78,1.16,4.32,0,1.06-.19,2.05-.58,2.97-.38.92-.94,1.8-1.68,2.64-.73.84-1.63,1.67-2.69,2.47-1.06.81-2.29,1.63-3.68,2.48-.99.62-2.05,1.21-3.19,1.76-1.14.55-2.21,1.16-3.22,1.82-1.01.66-1.83,1.44-2.47,2.34-.64.9-.96,1.99-.96,3.27,0,1.17.3,2.21.91,3.11.6.9,1.44,1.6,2.5,2.12,1.06.51,2.29.77,3.69.77,1.69,0,3.32-.37,4.89-1.1,1.58-.73,3.11-1.71,4.59-2.94,1.49-1.23,2.91-2.64,4.26-4.24,1.36-1.59,2.64-3.27,3.85-5.03l4.29,2.97c-1.36,1.87-2.81,3.73-4.37,5.58-1.56,1.85-3.26,3.52-5.09,5.01-1.83,1.48-3.83,2.69-6,3.6-2.16.92-4.51,1.38-7.04,1.38-2.24,0-4.33-.43-6.27-1.29-1.94-.86-3.52-2.11-4.73-3.74-1.21-1.63-1.81-3.55-1.81-5.75,0-1.65.31-3.1.93-4.34s1.42-2.32,2.39-3.22c.97-.9,2.04-1.67,3.19-2.31,1.16-.64,2.27-1.2,3.35-1.68,1.08-.48,1.99-.9,2.72-1.27,2.05-1.1,3.66-2.26,4.81-3.49,1.16-1.23,1.73-2.41,1.73-3.55,0-.81-.17-1.52-.52-2.14-.35-.62-.84-1.13-1.49-1.51s-1.42-.58-2.34-.58c-1.39,0-2.47.39-3.22,1.18s-1.13,1.79-1.13,3,.49,2.32,1.46,3.44c.97,1.12,2.08,2.39,3.33,3.82l20.35,22.83h-6.98l-18.54-20.84c-.7-.81-1.49-1.68-2.37-2.61Z"/>
          <path class="cls-1" d="m689.66,407.32v38.5h-6.38v-38.5h6.38Zm-2.37,0h17.21v5.83h-17.21v-5.83Zm0,15.46h16.67v5.67h-16.67v-5.67Z"/>
          <path class="cls-1" d="m721.15,407.87c.75-.7,1.62-1.04,2.61-1.04,1.06,0,1.96.35,2.7,1.04.73.7,1.1,1.56,1.1,2.58s-.37,1.84-1.1,2.56c-.73.71-1.63,1.07-2.7,1.07-.99,0-1.86-.36-2.61-1.07-.75-.71-1.13-1.57-1.13-2.56s.38-1.89,1.13-2.58Zm5.58,12.65v25.3h-5.89v-25.3h5.89Z"/>
          <path class="cls-1" d="m754.56,420.52v5.22h-14.35v-5.22h14.35Zm-4.24-8.8v34.1h-5.83v-34.1h5.83Z"/>
          <path class="cls-1" d="m782.56,426.18c-.77-.95-1.94-1.43-3.52-1.43-1.14,0-2.13.23-2.97.69-.84.46-1.49,1.12-1.95,1.98-.46.86-.69,1.86-.69,3v15.4h-6v-25.3h6v3.91c.81-1.5,1.84-2.62,3.11-3.36,1.26-.73,2.76-1.1,4.48-1.1,2.86,0,5.04.87,6.54,2.61,1.5,1.74,2.25,4.12,2.25,7.12v16.12h-6.1v-15.4c0-1.87-.39-3.28-1.16-4.23Z"/>
          <path class="cls-1" d="m810.42,444.72c-1.96-1.1-3.47-2.64-4.54-4.62-1.06-1.98-1.6-4.29-1.6-6.93s.54-5,1.62-6.98c1.08-1.98,2.61-3.51,4.59-4.59,1.98-1.08,4.31-1.62,6.99-1.62s4.96.51,6.85,1.54c1.89,1.03,3.33,2.5,4.32,4.43.99,1.93,1.48,4.25,1.48,6.96,0,.29,0,.6-.03.93-.02.33-.03.57-.03.71h-22.22v-4.12h17.1l-1.81,2.53c.11-.22.23-.51.36-.88.13-.37.19-.68.19-.93,0-1.36-.27-2.53-.8-3.52s-1.26-1.76-2.2-2.31c-.94-.55-2.03-.83-3.27-.83-1.5,0-2.78.33-3.82.99-1.04.66-1.85,1.61-2.42,2.86-.57,1.25-.85,2.79-.85,4.62-.04,1.8.23,3.34.8,4.62.57,1.28,1.38,2.25,2.45,2.92s2.37.99,3.91.99c1.65,0,3.08-.33,4.29-.99s2.2-1.67,2.97-3.03l5.17,2.04c-1.36,2.27-3.08,3.99-5.17,5.14s-4.6,1.73-7.54,1.73c-2.57,0-4.83-.55-6.79-1.65Z"/>
          <path class="cls-1" d="m848.28,439.77c.81.62,1.63,1.1,2.48,1.43.84.33,1.69.5,2.53.5,1.06,0,1.9-.24,2.5-.71.6-.48.91-1.14.91-1.98,0-.73-.24-1.37-.71-1.9-.48-.53-1.14-.99-1.98-1.38-.84-.38-1.83-.78-2.97-1.18-1.14-.44-2.26-.96-3.38-1.57-1.12-.6-2.04-1.4-2.75-2.39-.72-.99-1.07-2.24-1.07-3.74s.39-2.82,1.18-3.85c.79-1.03,1.85-1.79,3.19-2.28,1.34-.5,2.78-.74,4.32-.74,1.39,0,2.7.2,3.93.6,1.23.4,2.34.94,3.33,1.59.99.66,1.83,1.41,2.53,2.26l-3.3,3.52c-.81-.99-1.8-1.8-2.97-2.42-1.17-.62-2.38-.94-3.63-.94-.88,0-1.59.18-2.14.55s-.83.9-.83,1.59c0,.59.25,1.11.74,1.57.5.46,1.16.87,1.98,1.24.83.37,1.75.75,2.78,1.16,1.43.55,2.73,1.16,3.91,1.82,1.17.66,2.11,1.47,2.8,2.42.7.95,1.04,2.2,1.04,3.74,0,2.38-.82,4.3-2.45,5.75-1.63,1.45-3.82,2.17-6.57,2.17-1.76,0-3.36-.27-4.79-.8-1.43-.53-2.7-1.23-3.79-2.09-1.1-.86-2.02-1.77-2.75-2.72l3.46-3.52c.84.92,1.67,1.69,2.47,2.31Z"/>
          <path class="cls-1" d="m880.4,439.77c.81.62,1.63,1.1,2.48,1.43.84.33,1.69.5,2.53.5,1.06,0,1.9-.24,2.5-.71.6-.48.91-1.14.91-1.98,0-.73-.24-1.37-.71-1.9-.48-.53-1.14-.99-1.98-1.38-.84-.38-1.83-.78-2.97-1.18-1.14-.44-2.26-.96-3.38-1.57-1.12-.6-2.04-1.4-2.75-2.39-.72-.99-1.07-2.24-1.07-3.74s.39-2.82,1.18-3.85c.79-1.03,1.85-1.79,3.19-2.28,1.34-.5,2.78-.74,4.32-.74,1.39,0,2.7.2,3.93.6,1.23.4,2.34.94,3.33,1.59.99.66,1.83,1.41,2.53,2.26l-3.3,3.52c-.81-.99-1.8-1.8-2.97-2.42-1.17-.62-2.38-.94-3.63-.94-.88,0-1.59.18-2.14.55s-.83.9-.83,1.59c0,.59.25,1.11.74,1.57.5.46,1.16.87,1.98,1.24.83.37,1.75.75,2.78,1.16,1.43.55,2.73,1.16,3.91,1.82,1.17.66,2.11,1.47,2.8,2.42.7.95,1.04,2.2,1.04,3.74,0,2.38-.82,4.3-2.45,5.75-1.63,1.45-3.82,2.17-6.57,2.17-1.76,0-3.36-.27-4.79-.8-1.43-.53-2.7-1.23-3.79-2.09-1.1-.86-2.02-1.77-2.75-2.72l3.46-3.52c.84.92,1.67,1.69,2.47,2.31Z"/>
        </g>
      </g>
    </g>
  </g>
</svg>